<svg width="2500" height="2495" viewBox="0 0 2500 2495" fill="none" xmlns="http://www.w3.org/2000/svg">
<g filter="url(#filter0_d_1_3)">
<path d="M0.113037 547.431H2499.89V2495H0.113037V547.431Z" fill="black"/>
<path d="M2342.53 491.019H2220.81V1.16614H2499.89V110.966H2342.53V197.078H2499.89V300.938H2342.53V491.019ZM0.113037 1.1297H308.922V110.966H219.822V491.019H95.1173V110.966H0.113037V1.1297ZM2042.69 190.373C2039.88 198.864 2037.62 203.929 2031.57 210.416C2025.56 216.866 2020.89 219.271 2012.99 223.061C2005.33 226.742 2000.6 228.236 1992.21 229.767H1944.73V110.966H1992.21C2010.03 115.448 2009.74 115.521 2018.96 122.117C2029.35 129.515 2032.88 132.685 2038.2 142.124C2042.03 148.829 2043.56 153.056 2044.91 160.709C2046.95 172.115 2046.37 179.367 2042.69 190.373ZM2160.72 121.352C2154.05 95.15 2147.64 79.6986 2130.29 58.9631C2117.03 43.2931 2107.22 36.0047 2089.48 25.6551C2073.77 16.4718 2063.97 12.536 2046.4 7.79858C2025.85 2.15007 2013.5 2.33228 1992.21 1.16614C1976.4 0.109171 1960.54 0.109171 1944.73 1.16614H1817.04V491.019H1944.73V330.675C1963.24 330.675 1973.7 331.039 1992.21 330.675C2015.39 330.201 2028.51 330.31 2051.58 328.488C2069.36 327.03 2077.82 320.471 2092.39 311.36C2109.27 300.865 2117.14 292.046 2129.53 276.449C2141.66 261.253 2147.6 251.523 2154.75 233.447C2164.07 209.906 2165.68 194.855 2165.86 169.637C2166.04 150.651 2165.35 139.719 2160.72 121.352ZM1221.83 1.1297V491.019H1334.65V186.692L1438.51 490.983H1520.14L1624.08 186.692V490.983H1742.8V1.16614H1578.09L1481.52 301.011L1385.09 1.09326L1221.83 1.1297ZM1024.39 1.1297V321.783C1024.97 332.97 1023.37 339.894 1018.45 349.916C1014.18 358.662 1010.25 363.071 1002.89 369.23C997.319 374.284 990.733 378.086 983.573 380.381C975.309 383.58 966.364 384.608 957.59 383.37C950.901 382.774 944.366 381.023 938.275 378.195C929.055 374.113 923.443 371.599 916.775 364.055C910.616 357.204 908.757 351.884 905.623 343.283C902.708 335.266 901.979 330.274 901.214 321.783V1.1297H777.967V301.011H777.238L777.967 321.819C778.769 331.695 779.425 337.234 780.955 347.001C783.324 362.488 784.308 371.453 789.118 386.358C794.402 402.793 798.047 412.122 807.631 426.444C819.438 443.936 829.204 451.881 846.259 464.307C865.792 478.556 878.62 485.189 901.943 491.748C924.865 498.235 938.931 498.235 962.764 497.652C980.84 497.287 991.298 496.959 1008.79 492.477C1027.92 487.703 1038.38 482.929 1055.51 473.236C1072.82 463.396 1082.55 457.055 1096.4 442.77C1111.81 426.881 1118.63 415.584 1127.55 395.25C1135.75 376.628 1137.87 365.003 1140.89 344.778C1142.06 337.173 1142.79 329.507 1143.08 321.819V1.1297H1024.39ZM476.628 112.132H549.367C561.611 115.521 568.389 119.639 577.573 128.458C584.278 134.945 587.74 139.354 591.639 147.772C596.559 158.195 596.814 165.191 597.616 176.671C598.199 185.417 598.709 190.519 596.85 198.937C595.901 204.135 594.142 209.152 591.639 213.805C588.567 220.66 584.026 226.756 578.338 231.662C570.408 239.163 560.224 243.838 549.367 244.963V245.728H476.628V112.132ZM607.236 322.876V320.507C614.707 319.159 622.178 317.009 630.997 313.292C646.849 306.586 655.121 300.756 668.167 289.422C682.38 277.178 690.033 268.869 699.289 252.397C710.221 232.901 712.517 219.563 715.615 197.443C718.795 178.273 718.548 158.692 714.886 139.609C712.474 122.523 707.201 105.966 699.289 90.6312C689.45 70.2237 682.125 58.8538 665.872 43.1109C646.922 24.5983 633.292 15.3056 608.002 7.4706C586.1 0.655952 571.596 -3.50709e-06 549.367 2.22296H354.912V492.076H476.628V331.841L577.573 492.112H726.001L607.236 322.876Z" fill="black"/>
</g>
<defs>
<filter id="filter0_d_1_3" x="-3.88696" y="0.373413" width="2507.77" height="2502.63" filterUnits="userSpaceOnUse" color-interpolation-filters="sRGB">
<feFlood flood-opacity="0" result="BackgroundImageFix"/>
<feColorMatrix in="SourceAlpha" type="matrix" values="0 0 0 0 0 0 0 0 0 0 0 0 0 0 0 0 0 0 127 0" result="hardAlpha"/>
<feOffset dy="4"/>
<feGaussianBlur stdDeviation="2"/>
<feComposite in2="hardAlpha" operator="out"/>
<feColorMatrix type="matrix" values="0 0 0 0 0 0 0 0 0 0 0 0 0 0 0 0 0 0 1 0"/>
<feBlend mode="normal" in2="BackgroundImageFix" result="effect1_dropShadow_1_3"/>
<feBlend mode="normal" in="SourceGraphic" in2="effect1_dropShadow_1_3" result="shape"/>
</filter>
</defs>
</svg>
